<?xml version="1.0" standalone="no"?>
<!-- Generator: Adobe Fireworks 10, Export SVG Extension by Aaron Beall (http://fireworks.abeall.com) . Version: 0.6.1  -->
<!DOCTYPE svg PUBLIC "-//W3C//DTD SVG 1.1//EN" "http://www.w3.org/Graphics/SVG/1.1/DTD/svg11.dtd">
<svg id="Untitled-P%E1gina%201" viewBox="0 0 50 51" style="background-color:#ffffff00" version="1.1"
	xmlns="http://www.w3.org/2000/svg" xmlns:xlink="http://www.w3.org/1999/xlink" xml:space="preserve"
	x="0px" y="0px" width="50px" height="51px"
>
	<g id="Capa%201">
		<g>
			<path id="Elipse" d="M 0 26 C 0 12.1927 11.1927 1 25 1 C 38.8073 1 50 12.1927 50 26 C 50 39.8073 38.8073 51 25 51 C 11.1927 51 0 39.8073 0 26 Z" stroke="#000000" stroke-width="1" fill="#ffffff"/>
			<path d="M 22.4 1.4 C 22.4 1.4 9.0667 5.6667 8.2 25.2 C 7.3333 44.7333 16.4 49 16.4 49 " stroke="#000000" stroke-width="1" fill="none"/>
			<path d="M 3 15 C 3 15 1.7333 23.2667 6.8 23.8 C 11.8667 24.3333 14.2 22.4 14.2 22.4 L 27.8 13.6 C 27.8 13.6 37.3333 7.1333 42.6 9 " stroke="#000000" stroke-width="1" fill="none"/>
			<path d="M 0.6 28.4 C 0.6 28.4 3.0667 31.6 18.6 31.6 C 34.1333 31.6 42.8 29.4 42.8 29.4 C 42.8 29.4 49.3333 27.3333 49.8 26.2 " stroke="#000000" stroke-width="1" fill="none"/>
			<path d="M 4.6 39.6 C 4.6 39.6 5.8667 35.6667 12.8 38.8 C 19.7333 41.9333 25 44.8 25 44.8 C 25 44.8 32.6667 48.6 40 45.6 " stroke="#000000" stroke-width="1" fill="none"/>
		</g>
	</g>
</svg>