<?xml version="1.0" standalone="no"?>
<!-- Generator: Adobe Fireworks 10, Export SVG Extension by Aaron Beall (http://fireworks.abeall.com) . Version: 0.6.1  -->
<!DOCTYPE svg PUBLIC "-//W3C//DTD SVG 1.1//EN" "http://www.w3.org/Graphics/SVG/1.1/DTD/svg11.dtd">
<svg id="Untitled-P%E1gina%201" viewBox="0 0 52 52" style="background-color:#ffffff00" version="1.1"
	xmlns="http://www.w3.org/2000/svg" xmlns:xlink="http://www.w3.org/1999/xlink" xml:space="preserve"
	x="0px" y="0px" width="52px" height="52px"
>
	<g id="Capa%201">
		<g>
			<path id="Elipse" d="M 1 26.1079 C 1 12.3602 12.1927 1.2157 26 1.2157 C 39.8073 1.2157 51 12.3602 51 26.1079 C 51 39.8556 39.8073 51 26 51 C 12.1927 51 1 39.8556 1 26.1079 Z" stroke="#000000" stroke-width="1" fill="#ffffff"/>
			<path d="M 15.8563 19.9047 L 28.2365 22.211 L 35.0256 12.6677 L 27.0384 5.1125 L 15.6167 9.1684 L 15.8563 19.9047 Z" fill="#000000"/>
			<path d="M 2.9169 25.6307 L 9.7859 27.937 L 14.1789 39.0709 L 8.3482 43.922 C 8.3482 43.922 4.7541 40.5024 2.6773 35.2536 L 2.9169 25.6307 Z" fill="#000000"/>
			<path d="M 24.1629 41.6952 L 32.1502 32.7087 L 42.6134 33.9811 L 40.8563 43.2858 L 30.0735 47.978 L 24.1629 41.6952 Z" fill="#000000"/>
			<path d="M 50.8402 27.2213 L 47.0862 26.1079 L 43.3322 15.3716 L 44.8499 9.4866 C 44.8499 9.4866 52.1182 17.9165 50.8402 27.2213 Z" fill="#000000"/>
			<path d="M 29.1949 3.5221 L 38.6198 4.5559 C 38.6198 4.5559 31.671 0.1818 23.6038 1.1362 L 29.1949 3.5221 Z" fill="#000000"/>
			<path d="M 3.9552 17.4393 L 10.0256 9.8842 L 12.3418 5.033 C 12.3418 5.033 5.6326 9.0094 2.4377 17.3598 L 3.9552 17.4393 Z" fill="#000000"/>
		</g>
	</g>
</svg>