<?xml version="1.0" standalone="no"?>
<!-- Generator: Adobe Fireworks 10, Export SVG Extension by Aaron Beall (http://fireworks.abeall.com) . Version: 0.6.1  -->
<!DOCTYPE svg PUBLIC "-//W3C//DTD SVG 1.1//EN" "http://www.w3.org/Graphics/SVG/1.1/DTD/svg11.dtd">
<svg id="Untitled-P%E1gina%201" viewBox="0 0 52 52" style="background-color:#ffffff00" version="1.1"
	xmlns="http://www.w3.org/2000/svg" xmlns:xlink="http://www.w3.org/1999/xlink" xml:space="preserve"
	x="0px" y="0px" width="52px" height="52px"
>
	<g id="Capa%201">
		<g>
			<path id="Elipse" d="M 1 26 C 1 12.1927 12.1504 1 25.9055 1 C 39.6605 1 50.8109 12.1927 50.8109 26 C 50.8109 39.8073 39.6605 51 25.9055 51 C 12.1504 51 1 39.8073 1 26 Z" stroke="#000000" stroke-width="1" fill="#ffffff"/>
			<path d="M 15.8001 19.7699 L 28.1334 22.0863 L 34.8969 12.5016 L 26.9399 4.9137 L 15.5614 8.9872 L 15.8001 19.7699 Z" stroke="#000000" stroke-width="1" fill="none"/>
			<path d="M 1.2714 31.2532 L 2.9097 25.5208 L 9.7527 27.837 L 14.1291 39.0192 L 8.3204 43.8913 C 8.3204 43.8913 8.2936 43.8658 8.2431 43.8154 " stroke="#000000" stroke-width="1" fill="none"/>
			<path d="M 24.0753 41.6549 L 32.0324 32.6295 L 42.456 33.9073 L 40.7055 43.2524 L 29.9635 47.9649 L 24.0753 41.6549 Z" stroke="#000000" stroke-width="1" fill="none"/>
			<path d="M 51 25.9705 C 50.9934 26.0227 47.5673 25.0089 47.5673 25.0089 L 43.8275 14.2262 L 45.0117 9.6371 " stroke="#000000" stroke-width="1" fill="none"/>
			<path d="M 23.7792 1.2212 C 23.6924 1.2304 23.6054 1.2401 23.5183 1.2505 L 29.416 3.3164 L 38.5905 4.6613 " stroke="#000000" stroke-width="1" fill="none"/>
			<path d="M 2.7886 17.4695 C 2.779 17.4944 2.7695 17.5194 2.76 17.5445 L 4.2718 17.6243 L 10.9746 8.715 L 12.6266 5.1643 C 12.6266 5.1643 12.5574 5.2057 12.4296 5.2889 " stroke="#000000" stroke-width="1" fill="none"/>
			<path d="M 27.8717 22.2576 L 31.8041 32.4991 " stroke="#000000" stroke-width="1" fill="none"/>
			<path d="M 15.7466 19.945 L 9.5203 27.8739 " stroke="#000000" stroke-width="1" fill="none"/>
			<path d="M 14.4358 38.7762 L 23.9392 41.7496 " stroke="#000000" stroke-width="1" fill="none"/>
			<path d="M 35.0811 12.6768 L 43.6014 13.9983 " stroke="#000000" stroke-width="1" fill="none"/>
			<path d="M 47.5339 24.9006 L 42.6183 33.8206 " stroke="#000000" stroke-width="1" fill="none"/>
			<path d="M 15.0912 8.7123 L 10.8311 8.7123 " stroke="#000000" stroke-width="1" fill="none"/>
			<path d="M 4.277 17.6324 L 2.9662 25.2309 " stroke="#000000" stroke-width="1" fill="none"/>
			<path d="M 27.0934 4.7479 L 29.4283 3.2612 " stroke="#000000" stroke-width="1" fill="none"/>
			<path d="M 30.1656 48.0266 L 28.8548 50.6696 " stroke="#000000" stroke-width="1" fill="none"/>
			<path d="M 40.9798 43.4014 L 43.6014 43.7318 " stroke="#000000" stroke-width="1" fill="none"/>
		</g>
	</g>
</svg>