<?xml version="1.0" standalone="no"?>
<!-- Generator: Adobe Fireworks 10, Export SVG Extension by Aaron Beall (http://fireworks.abeall.com) . Version: 0.6.1  -->
<!DOCTYPE svg PUBLIC "-//W3C//DTD SVG 1.1//EN" "http://www.w3.org/Graphics/SVG/1.1/DTD/svg11.dtd">
<svg id="Untitled-P%E1gina%201" viewBox="0 0 50 50" style="background-color:#ffffff00" version="1.1"
	xmlns="http://www.w3.org/2000/svg" xmlns:xlink="http://www.w3.org/1999/xlink" xml:space="preserve"
	x="0px" y="0px" width="50px" height="50px"
>
	<defs>
		<radialGradient id="gradient1" cx="42%" cy="28%" r="65.4599%">
			<stop stop-color="#ffffff" stop-opacity="1" offset="0%"/>
			<stop stop-color="#ffffff" stop-opacity="1" offset="38.3333%"/>
			<stop stop-color="#cccccc" stop-opacity="1" offset="100%"/>
		</radialGradient>
	</defs>
	<g id="Capa%201">
		<g>
			<path id="Elipse" d="M 1 25 C 1 11.745 11.745 1 25 1 C 38.255 1 49 11.745 49 25 C 49 38.255 38.255 49 25 49 C 11.745 49 1 38.255 1 25 Z" stroke="#000000" stroke-width="1" fill="url(#gradient1)"/>
			<path id="Elipse2" d="M 18.28 21.64 C 18.28 20.3145 19.3545 19.24 20.68 19.24 C 22.0055 19.24 23.08 20.3145 23.08 21.64 C 23.08 22.9655 22.0055 24.04 20.68 24.04 C 19.3545 24.04 18.28 22.9655 18.28 21.64 Z" fill="#dddddd"/>
			<path id="Elipse3" d="M 26.92 21.64 C 26.92 20.3145 27.9945 19.24 29.32 19.24 C 30.6455 19.24 31.72 20.3145 31.72 21.64 C 31.72 22.9655 30.6455 24.04 29.32 24.04 C 27.9945 24.04 26.92 22.9655 26.92 21.64 Z" fill="#dddddd"/>
			<path id="Elipse4" d="M 35.56 19.72 C 35.56 18.3945 36.6345 17.32 37.96 17.32 C 39.2855 17.32 40.36 18.3945 40.36 19.72 C 40.36 21.0455 39.2855 22.12 37.96 22.12 C 36.6345 22.12 35.56 21.0455 35.56 19.72 Z" fill="#dddddd"/>
			<path id="Elipse5" d="M 41.32 14.44 C 41.32 13.3796 42.1796 12.52 43.24 12.52 C 44.3004 12.52 45.16 13.3796 45.16 14.44 C 45.16 15.5004 44.3004 16.36 43.24 16.36 C 42.1796 16.36 41.32 15.5004 41.32 14.44 Z" fill="#cccccc"/>
			<path id="Elipse6" d="M 9.64 19.72 C 9.64 18.3945 10.7145 17.32 12.04 17.32 C 13.3655 17.32 14.44 18.3945 14.44 19.72 C 14.44 21.0455 13.3655 22.12 12.04 22.12 C 10.7145 22.12 9.64 21.0455 9.64 19.72 Z" fill="#dddddd"/>
			<path id="Elipse7" d="M 21.16 4.84 C 21.16 3.7796 22.0196 2.92 23.08 2.92 C 24.1404 2.92 25 3.7796 25 4.84 C 25 5.9004 24.1404 6.76 23.08 6.76 C 22.0196 6.76 21.16 5.9004 21.16 4.84 Z" fill="#eeeeee"/>
			<path id="Elipse8" d="M 29.8 4.84 C 29.8 3.7796 30.6596 2.92 31.72 2.92 C 32.7804 2.92 33.64 3.7796 33.64 4.84 C 33.64 5.9004 32.7804 6.76 31.72 6.76 C 30.6596 6.76 29.8 5.9004 29.8 4.84 Z" fill="#eeeeee"/>
			<path id="Elipse9" d="M 14.44 5.32 C 14.44 4.5247 15.0847 3.88 15.88 3.88 C 16.6753 3.88 17.32 4.5247 17.32 5.32 C 17.32 6.1153 16.6753 6.76 15.88 6.76 C 15.0847 6.76 14.44 6.1153 14.44 5.32 Z" fill="#eeeeee"/>
			<path id="Elipse10" d="M 6.76 12.04 C 6.76 10.7145 7.8345 9.64 9.16 9.64 C 10.4855 9.64 11.56 10.7145 11.56 12.04 C 11.56 13.3655 10.4855 14.44 9.16 14.44 C 7.8345 14.44 6.76 13.3655 6.76 12.04 Z" fill="#dddddd"/>
			<path id="Elipse11" d="M 3.88 26.44 C 3.88 25.1145 4.9545 24.04 6.28 24.04 C 7.6055 24.04 8.68 25.1145 8.68 26.44 C 8.68 27.7655 7.6055 28.84 6.28 28.84 C 4.9545 28.84 3.88 27.7655 3.88 26.44 Z" fill="#dddddd"/>
			<path id="Elipse12" d="M 16.36 13 C 16.36 11.6745 17.4345 10.6 18.76 10.6 C 20.0855 10.6 21.16 11.6745 21.16 13 C 21.16 14.3255 20.0855 15.4 18.76 15.4 C 17.4345 15.4 16.36 14.3255 16.36 13 Z" fill="#dddddd"/>
			<path id="Elipse13" d="M 25 13 C 25 11.6745 26.0745 10.6 27.4 10.6 C 28.7255 10.6 29.8 11.6745 29.8 13 C 29.8 14.3255 28.7255 15.4 27.4 15.4 C 26.0745 15.4 25 14.3255 25 13 Z" fill="#dddddd"/>
			<path id="Elipse14" d="M 33.64 12.04 C 33.64 10.7145 34.7145 9.64 36.04 9.64 C 37.3655 9.64 38.44 10.7145 38.44 12.04 C 38.44 13.3655 37.3655 14.44 36.04 14.44 C 34.7145 14.44 33.64 13.3655 33.64 12.04 Z" fill="#dddddd"/>
			<path id="Elipse15" d="M 23.08 29.32 C 23.08 27.9945 24.1545 26.92 25.48 26.92 C 26.8055 26.92 27.88 27.9945 27.88 29.32 C 27.88 30.6455 26.8055 31.72 25.48 31.72 C 24.1545 31.72 23.08 30.6455 23.08 29.32 Z" fill="#dddddd"/>
			<path id="Elipse16" d="M 32.68 28.36 C 32.68 27.0345 33.7545 25.96 35.08 25.96 C 36.4055 25.96 37.48 27.0345 37.48 28.36 C 37.48 29.6855 36.4055 30.76 35.08 30.76 C 33.7545 30.76 32.68 29.6855 32.68 28.36 Z" fill="#dddddd"/>
			<path id="Elipse17" d="M 40.36 26.44 C 40.36 25.1145 41.4345 24.04 42.76 24.04 C 44.0855 24.04 45.16 25.1145 45.16 26.44 C 45.16 27.7655 44.0855 28.84 42.76 28.84 C 41.4345 28.84 40.36 27.7655 40.36 26.44 Z" fill="#cccccc"/>
			<path id="Elipse18" d="M 13.48 28.36 C 13.48 27.0345 14.5545 25.96 15.88 25.96 C 17.2055 25.96 18.28 27.0345 18.28 28.36 C 18.28 29.6855 17.2055 30.76 15.88 30.76 C 14.5545 30.76 13.48 29.6855 13.48 28.36 Z" fill="#dddddd"/>
			<path id="Elipse19" d="M 23.08 43.24 C 23.08 42.1796 23.9396 41.32 25 41.32 C 26.0604 41.32 26.92 42.1796 26.92 43.24 C 26.92 44.3004 26.0604 45.16 25 45.16 C 23.9396 45.16 23.08 44.3004 23.08 43.24 Z" fill="#aaaaaa"/>
			<path id="Elipse20" d="M 32.68 42.28 C 32.68 41.2196 33.5396 40.36 34.6 40.36 C 35.6604 40.36 36.52 41.2196 36.52 42.28 C 36.52 43.3404 35.6604 44.2 34.6 44.2 C 33.5396 44.2 32.68 43.3404 32.68 42.28 Z" fill="#aaaaaa"/>
			<path id="Elipse21" d="M 13.48 42.28 C 13.48 41.2196 14.3396 40.36 15.4 40.36 C 16.4604 40.36 17.32 41.2196 17.32 42.28 C 17.32 43.3404 16.4604 44.2 15.4 44.2 C 14.3396 44.2 13.48 43.3404 13.48 42.28 Z" fill="#aaaaaa"/>
			<path id="Elipse22" d="M 18.28 36.04 C 18.28 34.7145 19.3545 33.64 20.68 33.64 C 22.0055 33.64 23.08 34.7145 23.08 36.04 C 23.08 37.3655 22.0055 38.44 20.68 38.44 C 19.3545 38.44 18.28 37.3655 18.28 36.04 Z" fill="#bbbbbb"/>
			<path id="Elipse23" d="M 27.88 36.04 C 27.88 34.7145 28.9545 33.64 30.28 33.64 C 31.6055 33.64 32.68 34.7145 32.68 36.04 C 32.68 37.3655 31.6055 38.44 30.28 38.44 C 28.9545 38.44 27.88 37.3655 27.88 36.04 Z" fill="#bbbbbb"/>
			<path id="Elipse24" d="M 36.52 34.12 C 36.52 32.7945 37.5945 31.72 38.92 31.72 C 40.2455 31.72 41.32 32.7945 41.32 34.12 C 41.32 35.4455 40.2455 36.52 38.92 36.52 C 37.5945 36.52 36.52 35.4455 36.52 34.12 Z" fill="#bbbbbb"/>
			<path id="Elipse25" d="M 8.68 35.08 C 8.68 33.7545 9.7545 32.68 11.08 32.68 C 12.4055 32.68 13.48 33.7545 13.48 35.08 C 13.48 36.4055 12.4055 37.48 11.08 37.48 C 9.7545 37.48 8.68 36.4055 8.68 35.08 Z" fill="#bbbbbb"/>
		</g>
	</g>
</svg>