<?xml version="1.0" standalone="no"?>
<!-- Generator: Adobe Fireworks 10, Export SVG Extension by Aaron Beall (http://fireworks.abeall.com) . Version: 0.6.1  -->
<!DOCTYPE svg PUBLIC "-//W3C//DTD SVG 1.1//EN" "http://www.w3.org/Graphics/SVG/1.1/DTD/svg11.dtd">
<svg id="Untitled-P%E1gina%201" viewBox="0 0 70 52" style="background-color:#ffffff00" version="1.1"
	xmlns="http://www.w3.org/2000/svg" xmlns:xlink="http://www.w3.org/1999/xlink" xml:space="preserve"
	x="0px" y="0px" width="70px" height="52px"
>
	<g id="Capa%201">
		<g>
			<path d="M 1.2318 36.5821 C 1.2318 36.5821 5.8771 16.6068 24.0456 6.3631 C 42.214 -3.8807 59.6598 3.6997 59.6598 3.6997 C 59.6598 3.6997 70.3957 7.6947 68.8473 17.3238 C 67.2989 26.953 64.5116 34.0211 57.8017 39.6552 C 51.0918 45.2893 44.1754 50.2062 26.6263 50.7184 C 9.0773 51.2306 4.1223 46.5185 4.1223 46.5185 C 4.1223 46.5185 -0.0069 43.9576 1.2318 36.5821 Z" stroke="#000000" stroke-width="1" fill="#ffffff"/>
			<path d="M 22.0842 14.8653 L 23.0133 14.1483 L 26.6263 19.5775 L 25.8005 20.0897 L 22.0842 14.8653 Z" stroke="#000000" stroke-width="1" fill="none"/>
			<path d="M 26.3167 12.202 L 27.2457 11.4849 L 31.2717 17.119 L 30.3426 17.7336 L 26.3167 12.202 Z" stroke="#000000" stroke-width="1" fill="none"/>
			<path d="M 30.3426 10.1532 L 31.2717 9.4362 L 35.2976 15.0702 L 34.3686 15.6849 L 30.3426 10.1532 Z" stroke="#000000" stroke-width="1" fill="none"/>
			<path d="M 34.1621 8.3094 L 35.0912 7.5923 L 39.0139 12.8166 L 38.0848 13.3288 L 34.1621 8.3094 Z" stroke="#000000" stroke-width="1" fill="none"/>
			<path d="M 38.3945 6.4655 L 39.1171 5.9533 L 43.0399 10.563 L 42.1108 10.9727 L 38.3945 6.4655 Z" stroke="#000000" stroke-width="1" fill="none"/>
			<path d="M 41.9043 5.0313 L 42.8334 4.6216 L 46.8593 9.4362 L 45.9303 9.8459 L 41.9043 5.0313 Z" stroke="#000000" stroke-width="1" fill="none"/>
			<path d="M 48.924 3.3924 L 49.853 2.9826 L 53.5692 7.285 L 52.6402 7.4899 L 48.924 3.3924 Z" stroke="#000000" stroke-width="1" fill="none"/>
			<path d="M 23.0133 17.3238 C 23.0133 17.3238 7.7009 28.7968 1.1286 41.3966 C 1.1286 41.3966 10.6601 27.5676 23.6327 18.2458 C 23.6327 18.2458 23.9424 17.3238 23.0133 17.3238 Z" stroke="#000000" stroke-width="1" fill="none"/>
			<path d="M 64.4084 6.4655 C 64.4084 6.4655 59.5222 4.3484 51.195 4.5192 L 52.4337 5.7484 C 52.4337 5.7484 57.8017 4.8265 64.4084 6.4655 Z" stroke="#000000" stroke-width="1" fill="none"/>
			<path d="M 23.0133 17.3238 C 23.0133 17.3238 22.8584 16.8629 23.4262 16.5043 C 23.994 16.1458 39.6849 6.2094 50.1627 4.8265 " stroke="#000000" stroke-width="1" fill="none"/>
			<path d="M 24.8714 16.7092 C 24.8714 16.7092 38.0848 8.1045 50.6789 5.4411 " stroke="#000000" stroke-width="1" fill="none"/>
			<path d="M 23.6327 18.4507 C 23.6327 18.4507 24.0972 18.758 24.5617 18.4507 C 25.0263 18.1433 33.5427 11.0239 51.2982 6.0557 " stroke="#000000" stroke-width="1" fill="none"/>
			<path d="M 48.8757 1.0915 C 48.8757 1.0915 63.8541 12.5857 64.9568 30.6349 C 64.9568 30.6349 67.2847 25.2689 67.8973 21.8542 C 67.8973 21.8542 64.5892 8.8051 56.5027 2.8293 C 56.5027 2.8293 52.9189 1.7012 48.8757 1.0915 Z" stroke="#000000" stroke-width="1" fill="#ffffff"/>
			<path d="M 8.6211 20.7566 C 8.6211 20.7566 13.8649 40.6352 27.8324 50.7574 C 27.8324 50.7574 21.5945 51.5368 18.0909 50.3018 C 18.0909 50.3018 7.2486 40.2693 4.6757 27.5952 C 4.6757 27.5952 6.4216 24.3238 8.6211 20.7566 Z" stroke="#000000" stroke-width="1" fill="#ffffff"/>
		</g>
	</g>
</svg>