<?xml version="1.0" standalone="no"?>
<!-- Generator: Adobe Fireworks 10, Export SVG Extension by Aaron Beall (http://fireworks.abeall.com) . Version: 0.6.1  -->
<!DOCTYPE svg PUBLIC "-//W3C//DTD SVG 1.1//EN" "http://www.w3.org/Graphics/SVG/1.1/DTD/svg11.dtd">
<svg id="Untitled-P%E1gina%201" viewBox="0 0 50 50" style="background-color:#ffffff00" version="1.1"
	xmlns="http://www.w3.org/2000/svg" xmlns:xlink="http://www.w3.org/1999/xlink" xml:space="preserve"
	x="0px" y="0px" width="50px" height="50px"
>
	<g id="Capa%201">
		<g>
			<path id="Elipse" d="M 0 25 C 0 11.1927 11.1927 0 25 0 C 38.8073 0 50 11.1927 50 25 C 50 38.8073 38.8073 50 25 50 C 11.1927 50 0 38.8073 0 25 Z" stroke="#000000" stroke-width="1" fill="#ffffff"/>
			<path d="M 24.7619 25 C 24.7619 25 36.3968 35.2698 25.5238 49 " stroke="#000000" stroke-width="1" fill="#ffffff"/>
			<path d="M 41.0317 12.5397 C 41.0317 12.5397 47.381 18.4921 48.5714 32.619 " stroke="#000000" stroke-width="1" fill="none"/>
			<path d="M 31.9048 15.9524 C 31.9048 15.9524 46.5079 29.0476 37.381 46.9048 " stroke="#000000" stroke-width="1" fill="none"/>
			<path d="M 25 24.7619 C 25 24.7619 30.3174 10.3968 46.5079 12.619 " stroke="#000000" stroke-width="1" fill="none"/>
			<path d="M 13.3333 23.5714 C 13.3333 23.5714 18.254 4.4444 37.5397 3.5714 " stroke="#000000" stroke-width="1" fill="none"/>
			<path d="M 5.9524 16.6667 C 5.9524 16.6667 10.0794 5 21.1905 0.4762 " stroke="#000000" stroke-width="1" fill="none"/>
			<path d="M 25 25 C 25 25 12.0635 29.2064 3.5714 12.619 " stroke="#000000" stroke-width="1" fill="none"/>
			<path d="M 29.2857 35.9524 C 29.2857 35.9524 9.5714 43.381 1.2381 24.8095 " stroke="#000000" stroke-width="1" fill="#ffffff"/>
			<path d="M 27.381 45.4762 C 27.381 45.4762 16.1905 48.7301 5 39.7619 " stroke="#000000" stroke-width="1" fill="none"/>
		</g>
	</g>
</svg>