<?xml version="1.0" standalone="no"?>
<!-- Generator: Adobe Fireworks 10, Export SVG Extension by Aaron Beall (http://fireworks.abeall.com) . Version: 0.6.1  -->
<!DOCTYPE svg PUBLIC "-//W3C//DTD SVG 1.1//EN" "http://www.w3.org/Graphics/SVG/1.1/DTD/svg11.dtd">
<svg id="logo-dportes-P%E1gina%201" viewBox="0 0 255 96" style="background-color:#ffffff00" version="1.1"
	xmlns="http://www.w3.org/2000/svg" xmlns:xlink="http://www.w3.org/1999/xlink" xml:space="preserve"
	x="0px" y="0px" width="255px" height="96px"
>
	<g id="Fondo">
		<rect x="47" y="55" width="8" height="41" fill="#ffffff"/>
		<rect x="130" y="52" width="8" height="27" fill="#ffffff"/>
		<rect x="156" y="25" width="8" height="38" fill="#ffffff"/>
		<rect x="177" y="54" width="37" height="8" fill="#ffffff"/>
		<rect x="194" y="71" width="19" height="8" fill="#ffffff"/>
		<rect x="216" y="71" width="24" height="8" fill="#ffffff"/>
		<rect x="235" y="40" width="19" height="8" fill="#ffffff"/>
		<rect x="216" y="57" width="39" height="8" fill="#ffffff"/>
		<rect x="156" y="35" width="16" height="8" fill="#ffffff"/>
		<path d="M 152 39 C 152 39 134.5 38.1667 130 52 L 138 58 C 138 58 136.75 46.75 152 47 L 152 39 Z" fill="#ffffff"/>
		<path d="M 236 40 C 236 40 218.8333 39.6667 216.1667 57 L 223.6667 59.3333 C 223.6667 59.3333 222.7708 48.4167 235.9375 47.75 L 236 40 Z" fill="#ffffff"/>
		<path d="M 235.375 78.75 C 235.375 78.75 252 80.75 255 62.3329 L 247.5 59.9995 C 247.5 59.9995 248.3334 70.6662 235.1667 71.3329 L 235.375 78.75 Z" fill="#ffffff"/>
		<path d="M 176 78.9996 C 176 78.9996 158.6891 79.3271 156 62.293 L 163.563 60 C 163.563 60 162.7227 70.4825 176 71.1377 L 176 78.9996 Z" fill="#ffffff"/>
		<path d="M 195.6875 79 C 195.6875 79 179.8766 79.0966 177.1875 62.0625 L 184.563 60 C 184.563 60 183.7227 70.6573 197 71.3125 L 195.6875 79 Z" fill="#ffffff"/>
		<path d="M 45 58.1779 C 45 54.1775 43.8953 50.4278 41.968 47.2015 L 38.4145 50.1718 C 38.2318 48.4816 35.122 43.7669 35.122 43.7669 L 37.553 41.6186 L 13.7194 0 L 1.0976 6.4049 L 16.6528 37.0417 C 7.0614 39.5454 0 48.059 0 58.1779 C 0 70.264 10.0733 80.0614 22.5 80.0614 C 25.3161 80.0614 28.0112 79.5578 30.4957 78.639 C 30.2927 79.2555 30.1828 79.913 30.1828 80.5951 C 30.1828 84.1325 33.1314 87 36.7683 87 C 40.4053 87 43.3536 84.1325 43.3536 80.5951 C 43.3536 77.3845 40.9241 74.7261 37.7561 74.2622 C 42.2097 70.2641 45 64.5378 45 58.1779 ZM 36.7683 77.0083 C 38.805 77.0083 40.456 78.6142 40.456 80.5951 C 40.456 82.576 38.805 84.1818 36.7683 84.1818 C 34.7317 84.1818 33.0806 82.576 33.0806 80.5951 C 33.0806 78.6142 34.7317 77.0083 36.7683 77.0083 Z" fill="#ffffff"/>
		<path d="M 96 59 C 96 52.3725 101.3725 47 108 47 C 114.6275 47 120 52.3725 120 59 C 120 65.6275 114.6275 71 108 71 C 101.3725 71 96 65.6275 96 59 ZM 88 59 C 88 70.0458 96.9542 79 108 79 C 119.0458 79 128 70.0458 128 59 C 128 47.9542 119.0458 39 108 39 C 96.9542 39 88 47.9542 88 59 Z" fill="#ffffff"/>
		<path d="M 55 58 C 55 51.3725 60.3725 46 67 46 C 73.6275 46 79 51.3725 79 58 C 79 64.6275 73.6275 70 67 70 C 60.3725 70 55 64.6275 55 58 ZM 47 58 C 47 69.0458 55.9542 78 67 78 C 78.0458 78 87 69.0458 87 58 C 87 46.9542 78.0458 38 67 38 C 55.9542 38 47 46.9542 47 58 Z" fill="#ffffff"/>
		<path d="M 213.995 56 C 213.73 46.0137 205.5502 38 195.5 38 C 185.4498 38 177.2699 46.0137 177.005 56 L 185.51 56 C 185.7705 50.7094 190.1447 46.5 195.5 46.5 C 200.8553 46.5 205.2295 50.7094 205.49 56 L 213.995 56 Z" fill="#ffffff"/>
	</g>
	<g id="Capa%201">
	</g>
</svg>