<?xml version="1.0" standalone="no"?>
<!-- Generator: Adobe Fireworks 10, Export SVG Extension by Aaron Beall (http://fireworks.abeall.com) . Version: 0.6.1  -->
<!DOCTYPE svg PUBLIC "-//W3C//DTD SVG 1.1//EN" "http://www.w3.org/Graphics/SVG/1.1/DTD/svg11.dtd">
<svg id="agregar.fw-P%E1gina%201" viewBox="0 0 50 50" style="background-color:#ffffff00" version="1.1"
	xmlns="http://www.w3.org/2000/svg" xmlns:xlink="http://www.w3.org/1999/xlink" xml:space="preserve"
	x="0px" y="0px" width="50px" height="50px"
>
	<g id="Capa%201">
		<path id="Elipse" d="M 1 25 C 1 11.745 11.745 1 25 1 C 38.255 1 49 11.745 49 25 C 49 38.255 38.255 49 25 49 C 11.745 49 1 38.255 1 25 Z" stroke="#00680a" stroke-width="1" fill="#268b1e"/>
		<g>
			<path d="M 15.3187 19.02 L 15.3187 23.82 L 10.58 23.82 L 10.58 25.62 L 15.3187 25.62 L 15.3187 31.02 L 17.0958 31.02 L 17.0958 25.62 L 22.4268 25.62 L 22.4268 23.82 L 17.0958 23.82 L 17.0958 19.02 L 15.3187 19.02 Z" fill="#ffffff"/>
			<path id="Elipse2" d="M 24.2038 20.22 C 24.2038 17.569 26.3254 15.42 28.9425 15.42 C 31.5597 15.42 33.6813 17.569 33.6813 20.22 C 33.6813 22.871 31.5597 25.02 28.9425 25.02 C 26.3254 25.02 24.2038 22.871 24.2038 20.22 Z" stroke="#ffffff" stroke-width="2" fill="#268c1f"/>
			<path d="M 20.0575 34.62 L 20.0575 31.2683 C 20.0575 31.2683 28.7286 25.3097 38.42 31.2683 L 38.42 34.62 L 20.0575 34.62 Z" stroke="#ffffff" stroke-width="2" fill="#268c1f"/>
		</g>
	</g>
</svg>