<?xml version="1.0" standalone="no"?>
<!-- Generator: Adobe Fireworks 10, Export SVG Extension by Aaron Beall (http://fireworks.abeall.com) . Version: 0.6.1  -->
<!DOCTYPE svg PUBLIC "-//W3C//DTD SVG 1.1//EN" "http://www.w3.org/Graphics/SVG/1.1/DTD/svg11.dtd">
<svg id="user.fw-P%E1gina%201" viewBox="0 0 113 101" style="background-color:#ffffff00" version="1.1"
	xmlns="http://www.w3.org/2000/svg" xmlns:xlink="http://www.w3.org/1999/xlink" xml:space="preserve"
	x="0px" y="0px" width="113px" height="101px"
>
	<g id="Capa%201">
		<path d="M 0 101 L 2 85 C 2 85 4 81.5 7 81 C 10.6317 80.3947 24.3333 73.6667 34 70 C 43.6667 66.3333 42 55 42 55 L 39 48 C 39 48 30.3333 32.6667 35 33 C 35 33 30 13 38 5 C 46 -3 65 1 65 1 C 65 1 77.3333 5.3333 77 17 C 76.6667 28.6667 76 33 76 33 C 76 33 82 33 73 48 C 73 48 71.3333 54.3333 70 56 C 70 56 70.6667 68 81 72 C 91.3333 76 105 81 105 81 C 105 81 109.3333 81 110 87 L 113 101 L 0 101 Z" stroke="#ffffff00" stroke-width="1" fill="#59b200"/>
	</g>
</svg>