<?xml version="1.0" standalone="no"?>
<!-- Generator: Adobe Fireworks 10, Export SVG Extension by Aaron Beall (http://fireworks.abeall.com) . Version: 0.6.1  -->
<!DOCTYPE svg PUBLIC "-//W3C//DTD SVG 1.1//EN" "http://www.w3.org/Graphics/SVG/1.1/DTD/svg11.dtd">
<svg id="Untitled-P%E1gina%201" viewBox="0 0 77 77" style="background-color:#ffffff00" version="1.1"
	xmlns="http://www.w3.org/2000/svg" xmlns:xlink="http://www.w3.org/1999/xlink" xml:space="preserve"
	x="0px" y="0px" width="77px" height="77px"
>
	<g id="Capa%201">
		<g>
			<path id="Elipse" d="M 1 38.6618 C 1 18.0402 17.789 1.3236 38.5 1.3236 C 59.211 1.3236 76 18.0402 76 38.6618 C 76 59.2834 59.211 76 38.5 76 C 17.789 76 1 59.2834 1 38.6618 Z" stroke="#8c0000" stroke-width="1" fill="none"/>
			<path d="M 23.2844 29.357 L 41.8547 32.8165 L 52.0384 18.5016 L 40.0576 7.1688 L 22.9249 13.2527 L 23.2844 29.357 Z" fill="#8c0000"/>
			<path d="M 3.8753 37.9461 L 14.1789 41.4055 L 20.7684 58.1063 L 12.0224 65.383 C 12.0224 65.383 6.6311 60.2536 3.516 52.3803 L 3.8753 37.9461 Z" fill="#8c0000"/>
			<path d="M 35.7444 62.0429 L 47.7253 48.5631 L 63.4201 50.4716 L 60.7844 64.4287 L 44.6103 71.4669 L 35.7444 62.0429 Z" fill="#8c0000"/>
			<path d="M 75.7604 40.3319 L 70.1294 38.6618 L 64.4983 22.5575 L 66.7748 13.7299 C 66.7748 13.7299 77.6773 26.3747 75.7604 40.3319 Z" fill="#8c0000"/>
			<path d="M 43.2923 4.7831 L 57.4297 6.3338 C 57.4297 6.3338 47.0064 -0.2272 34.9057 1.2043 L 43.2923 4.7831 Z" fill="#8c0000"/>
			<path d="M 5.4329 25.659 L 14.5384 14.3263 L 18.0128 7.0496 C 18.0128 7.0496 7.9489 13.0141 3.1566 25.5398 L 5.4329 25.659 Z" fill="#8c0000"/>
		</g>
	</g>
</svg>