<?xml version="1.0" standalone="no"?>
<!-- Generator: Adobe Fireworks 10, Export SVG Extension by Aaron Beall (http://fireworks.abeall.com) . Version: 0.6.1  -->
<!DOCTYPE svg PUBLIC "-//W3C//DTD SVG 1.1//EN" "http://www.w3.org/Graphics/SVG/1.1/DTD/svg11.dtd">
<svg id="Untitled-P%E1gina%201" viewBox="0 0 121 121" style="background-color:#ffffff00" version="1.1"
	xmlns="http://www.w3.org/2000/svg" xmlns:xlink="http://www.w3.org/1999/xlink" xml:space="preserve"
	x="0px" y="0px" width="121px" height="121px"
>
	<g id="Capa%201">
		<path id="Elipse" d="M 1 60.5 C 1 27.6387 27.6387 1 60.5 1 C 93.3613 1 120 27.6387 120 60.5 C 120 93.3614 93.3613 120 60.5 120 C 27.6387 120 1 93.3614 1 60.5 Z" stroke="#00680a" stroke-width="1" fill="#268b1e"/>
		<g>
			<path id="Elipse2" d="M 41.5 76.5798 C 41.5 66.4065 50.0063 58.1596 60.5 58.1596 C 70.9937 58.1596 79.5 66.4065 79.5 76.5798 C 79.5 86.7531 70.9937 95 60.5 95 C 50.0063 95 41.5 86.7531 41.5 76.5798 Z" stroke="#ffffff" stroke-width="1" fill="none"/>
			<path d="M 52.7909 71.9895 L 62.1996 73.6962 L 67.3595 66.6342 L 61.2892 61.0433 L 52.6086 64.0447 L 52.7909 71.9895 Z" fill="#ffffff"/>
			<path d="M 42.9569 76.2267 L 48.1775 77.9333 L 51.5159 86.1725 L 47.0846 89.7623 C 47.0846 89.7623 44.3531 87.2317 42.7747 83.3476 L 42.9569 76.2267 Z" fill="#ffffff"/>
			<path d="M 59.104 88.1145 L 65.1741 81.4645 L 73.1261 82.406 L 71.7909 89.2915 L 63.5958 92.7637 L 59.104 88.1145 Z" fill="#ffffff"/>
			<path d="M 79.3784 77.4037 L 76.5256 76.5798 L 73.6725 68.635 L 74.8259 64.2801 C 74.8259 64.2801 80.3499 70.5182 79.3784 77.4037 Z" fill="#ffffff"/>
			<path d="M 62.9282 59.8664 L 70.0911 60.6313 C 70.0911 60.6313 64.8099 57.3946 58.6788 58.1008 L 62.9282 59.8664 Z" fill="#ffffff"/>
			<path d="M 43.7461 70.1651 L 48.3595 64.5743 L 50.1198 60.9844 C 50.1198 60.9844 45.0208 63.927 42.5927 70.1063 L 43.7461 70.1651 Z" fill="#ffffff"/>
		</g>
		<g>
			<path d="M 11 65 L 12.0422 68.6175 L 16 68.4377 L 12.6864 70.4936 L 14.0902 74 L 11 71.6531 L 7.9098 74 L 9.3136 70.4936 L 6 68.4377 L 9.9578 68.6175 L 11 65 Z" fill="#ffffff"/>
		</g>
		<g>
			<path d="M 20 83 L 21.0422 86.6175 L 25 86.4377 L 21.6864 88.4936 L 23.0902 92 L 20 89.6531 L 16.9098 92 L 18.3136 88.4936 L 15 86.4377 L 18.9578 86.6175 L 20 83 Z" fill="#ffffff"/>
		</g>
		<g>
			<path d="M 35 99 L 36.0422 102.6176 L 40 102.4377 L 36.6864 104.4937 L 38.0902 108 L 35 105.6531 L 31.9098 108 L 33.3136 104.4937 L 30 102.4377 L 33.9578 102.6176 L 35 99 Z" fill="#ffffff"/>
		</g>
		<g>
			<path d="M 60.5 106 L 61.5422 109.6175 L 65.5 109.4377 L 62.1864 111.4936 L 63.5902 115 L 60.5 112.6531 L 57.4098 115 L 58.8136 111.4936 L 55.5 109.4377 L 59.4578 109.6175 L 60.5 106 Z" fill="#ffffff"/>
		</g>
		<g>
			<path d="M 87 99 L 88.0422 102.6175 L 92 102.4377 L 88.6864 104.4936 L 90.0902 108 L 87 105.6531 L 83.9098 108 L 85.3136 104.4936 L 82 102.4377 L 85.9578 102.6175 L 87 99 Z" fill="#ffffff"/>
		</g>
		<g>
			<path d="M 101 83 L 102.0422 86.6175 L 106 86.4377 L 102.6864 88.4936 L 104.0902 92 L 101 89.6531 L 97.9098 92 L 99.3136 88.4936 L 96 86.4377 L 99.9578 86.6175 L 101 83 Z" fill="#ffffff"/>
		</g>
		<g>
			<path d="M 110 65 L 111.0422 68.6175 L 115 68.4377 L 111.6864 70.4936 L 113.0902 74 L 110 71.6531 L 106.9098 74 L 108.3136 70.4936 L 105 68.4377 L 108.9578 68.6175 L 110 65 Z" fill="#ffffff"/>
		</g>
		<g>
			<path d="M 23.6406 30 L 19.6406 30 L 17 45 L 32.6094 45 L 33.1406 42 L 21.5313 42 L 23.6406 30 L 23.6406 30 Z" fill="#ffffff"/>
			<path d="M 42.2969 32 L 39.2969 32 L 37.0625 44.6875 L 40.0625 44.6875 L 42.2969 32 L 42.2969 32 Z" fill="#ffffff"/>
			<path d="M 55.875 40 L 60.875 40 L 60.3594 43 L 50.3594 43 L 51.9375 34 L 61.9375 34 L 61.7031 35.3594 L 64.7969 34.8438 L 64.8594 34.4531 C 64.875 34.3438 64.8906 34.2031 64.9219 34.0156 C 64.9375 33.8438 64.9375 33.6719 64.9219 33.4844 C 64.8906 33.2969 64.8438 33.125 64.7813 32.9375 C 64.7188 32.7656 64.5938 32.6094 64.4375 32.4688 C 64.2031 32.2969 63.8594 32.1719 63.4063 32.1094 C 62.9531 32.0469 62.4688 32 61.9531 32 L 52.6406 32 C 51.7969 32 51.1875 32.0781 50.7813 32.2031 C 50.375 32.3438 50.0938 32.4844 49.9219 32.6094 C 49.5156 32.9219 49.25 33.3125 49.0938 33.7656 C 48.9375 34.2344 48.8125 34.6719 48.75 35.0781 L 47.5469 41.9219 C 47.4688 42.3438 47.4219 42.7813 47.4219 43.2344 C 47.4063 43.7031 47.5469 44.0781 47.8438 44.3906 C 48.2188 44.7969 49.0625 45 50.3438 45 L 59.6563 45 C 60.5 45 61.125 44.9375 61.5313 44.8125 C 61.9219 44.6875 62.2188 44.5625 62.4063 44.4219 C 62.7656 44.1719 63.0156 43.8125 63.1719 43.375 C 63.3281 42.9375 63.4375 42.5313 63.5 42.1406 L 64.2344 38 L 56.2344 38 L 55.875 40 L 55.875 40 Z" fill="#ffffff"/>
			<path d="M 73.6563 40 L 77.5938 34.7344 L 79.625 40 L 73.6563 40 L 73.6563 40 ZM 76.7344 32 L 66.9375 44.7969 L 70.0156 44.7969 L 72.1094 42 L 80.5156 42 L 81.5938 44.7969 L 85.0781 44.7969 L 79.7031 32 L 76.7344 32 L 76.7344 32 Z" fill="#ffffff"/>
			<path d="M 101.9375 34 L 101.7031 35.3438 L 104.7969 34.7813 L 104.8438 34.5 C 104.9063 34.1875 104.9219 33.8594 104.9219 33.5156 C 104.9219 33.1719 104.7969 32.8594 104.5625 32.6094 C 104.4219 32.4844 104.1875 32.3438 103.8594 32.2031 C 103.5313 32.0781 103.0313 32 102.3438 32 L 94.5625 32 C 94.1094 32 93.6406 32.0313 93.1563 32.0938 C 92.6563 32.1563 92.2344 32.3125 91.8906 32.5625 C 91.6875 32.7188 91.5313 32.9063 91.4063 33.0938 C 91.2813 33.2969 91.1719 33.5 91.0938 33.7031 C 91 33.9219 90.9375 34.1094 90.9063 34.2969 C 90.8594 34.4844 90.8281 34.625 90.8125 34.7344 L 90.5156 36.4063 C 90.4375 36.8438 90.4219 37.25 90.4844 37.6094 C 90.5469 37.9688 90.6563 38.25 90.8438 38.4375 C 90.9688 38.5625 91.1875 38.6875 91.5313 38.8125 C 91.8594 38.9375 92.4219 39 93.2188 39 L 101.0625 39 L 100.3594 43 L 91.3594 43 L 91.6094 41.5 L 88.5313 42.0156 L 88.4219 42.6094 C 88.3281 43.1563 88.3281 43.5781 88.4219 43.8594 C 88.5156 44.1563 88.6563 44.375 88.8125 44.5 C 88.9531 44.625 89.2031 44.7344 89.5469 44.8438 C 89.8906 44.9531 90.5 45 91.3438 45 L 99.6875 45 C 100.2031 45 100.7031 44.9688 101.2031 44.875 C 101.6875 44.7969 102.0938 44.625 102.4219 44.3438 C 102.8125 44.0313 103.0781 43.6563 103.2188 43.2031 C 103.3594 42.75 103.4688 42.3125 103.5469 41.8906 L 103.8594 40.1094 C 103.9219 39.7031 103.9688 39.2656 104 38.7969 C 104.0313 38.3281 103.9063 37.9375 103.6406 37.625 C 103.3125 37.2188 102.5156 37 101.2656 37 L 93.4063 37 L 93.9375 34 L 101.9375 34 L 101.9375 34 Z" fill="#ffffff"/>
		</g>
	</g>
</svg>