<?xml version="1.0" standalone="no"?>
<!-- Generator: Adobe Fireworks 10, Export SVG Extension by Aaron Beall (http://fireworks.abeall.com) . Version: 0.6.1  -->
<!DOCTYPE svg PUBLIC "-//W3C//DTD SVG 1.1//EN" "http://www.w3.org/Graphics/SVG/1.1/DTD/svg11.dtd">
<svg id="Untitled-P%E1gina%201" viewBox="0 0 51 51" style="background-color:#ffffff00" version="1.1"
	xmlns="http://www.w3.org/2000/svg" xmlns:xlink="http://www.w3.org/1999/xlink" xml:space="preserve"
	x="0px" y="0px" width="51px" height="51px"
>
	<g id="Capa%201">
		<g>
			<path id="Elipse" d="M 1 25.5 C 1 11.9689 11.9689 1 25.5 1 C 39.0311 1 50 11.9689 50 25.5 C 50 39.0312 39.0311 50 25.5 50 C 11.9689 50 1 39.0312 1 25.5 Z" stroke="#00680a" stroke-width="1" fill="#268b1e"/>
			<path d="M 10.0763 18.9118 L 10.0763 23.0294 L 5.9412 23.0294 L 5.9412 24.5735 L 10.0763 24.5735 L 10.0763 29.2059 L 11.6271 29.2059 L 11.6271 24.5735 L 16.2791 24.5735 L 16.2791 23.0294 L 11.6271 23.0294 L 11.6271 18.9118 L 10.0763 18.9118 Z" stroke="#ffffff" stroke-width="1" fill="#ffffff"/>
			<path d="M 18.611 21.9164 C 18.611 23.4393 19.3733 24.7833 20.5353 25.5845 C 17.0887 26.671 14.5882 29.9057 14.5882 33.7271 L 31.5735 33.7271 C 31.5735 29.8829 29.0433 26.6328 25.5648 25.5656 C 26.7112 24.7622 27.4613 23.4272 27.4613 21.9164 C 27.4613 19.461 25.4801 17.4706 23.0361 17.4706 C 20.5923 17.4706 18.611 19.461 18.611 21.9164 Z" stroke="#268b1e" stroke-width="1" fill="#ffffff"/>
			<path d="M 32.5081 22.3035 C 32.5081 23.8264 33.2704 25.1703 34.4324 25.9715 C 30.9857 27.0581 28.4853 30.2928 28.4853 34.1141 L 45.4706 34.1141 C 45.4706 30.27 42.9403 27.0199 39.4619 25.9527 C 40.6082 25.1493 41.3584 23.8143 41.3584 22.3035 C 41.3584 19.8481 39.3772 17.8576 36.9332 17.8576 C 34.4893 17.8576 32.5081 19.8481 32.5081 22.3035 Z" stroke="#268b1e" stroke-width="1" fill="#ffffff"/>
			<path d="M 26.3316 25.0129 C 26.3316 26.5358 27.0939 27.8797 28.2559 28.6809 C 24.8093 29.7675 22.3088 33.0022 22.3088 36.8235 L 39.2941 36.8235 C 39.2941 32.9794 36.7639 29.7293 33.2854 28.662 C 34.4318 27.8587 35.1819 26.5237 35.1819 25.0129 C 35.1819 22.5575 33.2007 20.5671 30.7567 20.5671 C 28.3128 20.5671 26.3316 22.5575 26.3316 25.0129 Z" stroke="#268b1e" stroke-width="1" fill="#ffffff"/>
		</g>
	</g>
</svg>