<?xml version="1.0" standalone="no"?>
<!-- Generator: Adobe Fireworks 10, Export SVG Extension by Aaron Beall (http://fireworks.abeall.com) . Version: 0.6.1  -->
<!DOCTYPE svg PUBLIC "-//W3C//DTD SVG 1.1//EN" "http://www.w3.org/Graphics/SVG/1.1/DTD/svg11.dtd">
<svg id="Untitled-P%E1gina%201" viewBox="0 0 122 122" style="background-color:#ffffff00" version="1.1"
	xmlns="http://www.w3.org/2000/svg" xmlns:xlink="http://www.w3.org/1999/xlink" xml:space="preserve"
	x="0px" y="0px" width="122px" height="122px"
>
	<g id="Capa%201">
		<path id="Elipse" d="M 2 61.5 C 2 28.6387 28.6386 2 61.5 2 C 94.3614 2 121 28.6387 121 61.5 C 121 94.3614 94.3614 121 61.5 121 C 28.6386 121 2 94.3614 2 61.5 Z" stroke="#00680a" stroke-width="1" fill="#268b1e"/>
		<g>
			<g>
				<path d="M 20 50.0834 C 20 46.7878 21.8337 45 25.2137 45 L 54.7863 45 C 58.1663 45 60 46.7878 60 50.0834 L 60 78.9166 C 60 82.2122 58.1663 84 54.7863 84 L 25.2137 84 C 21.8337 84 20 82.2122 20 78.9166 L 20 50.0834 Z" fill="#ffffff"/>
			</g>
			<path id="Elipse2" d="M 33 47.5 C 33 43.9101 35.9101 41 39.5 41 C 43.0899 41 46 43.9101 46 47.5 C 46 51.0899 43.0899 54 39.5 54 C 35.9101 54 33 51.0899 33 47.5 Z" fill="#ffffff"/>
			<path id="Elipse3" d="M 37 47.5 C 37 46.1193 38.1193 45 39.5 45 C 40.8807 45 42 46.1193 42 47.5 C 42 48.8807 40.8807 50 39.5 50 C 38.1193 50 37 48.8807 37 47.5 Z" fill="#268c1f"/>
			<path id="Elipse4" d="M 33 60 C 33 56.134 36.134 53 40 53 C 43.866 53 47 56.134 47 60 C 47 63.866 43.866 67 40 67 C 36.134 67 33 63.866 33 60 Z" fill="#268c1f"/>
			<path d="M 27 80 L 27 73.8552 C 27 73.8552 39.2778 62.931 53 73.8552 L 53 80 L 27 80 Z" fill="#268c1f"/>
		</g>
		<rect x="67.2222" y="56" width="6.7556" height="21.6667" fill="#ffffff"/>
		<rect x="79.0444" y="47.6667" width="6.7556" height="30" fill="#ffffff"/>
		<rect x="91" y="41" width="8" height="37" fill="#ffffff"/>
		<path id="L%EDnea" d="M 102 81 L 64 81 " stroke="#ffffff" stroke-width="3" fill="none"/>
	</g>
</svg>