<?xml version="1.0" standalone="no"?>
<!-- Generator: Adobe Fireworks 10, Export SVG Extension by Aaron Beall (http://fireworks.abeall.com) . Version: 0.6.1  -->
<!DOCTYPE svg PUBLIC "-//W3C//DTD SVG 1.1//EN" "http://www.w3.org/Graphics/SVG/1.1/DTD/svg11.dtd">
<svg id="icono_agregar_jugadores-P%E1gina%201" viewBox="0 0 122 122" style="background-color:#ffffff00" version="1.1"
	xmlns="http://www.w3.org/2000/svg" xmlns:xlink="http://www.w3.org/1999/xlink" xml:space="preserve"
	x="0px" y="0px" width="122px" height="122px"
>
	<g id="Capa%201">
		<path id="Elipse" d="M 2 61.5 C 2 28.6387 28.6386 2 61.5 2 C 94.3614 2 121 28.6387 121 61.5 C 121 94.3614 94.3614 121 61.5 121 C 28.6386 121 2 94.3614 2 61.5 Z" stroke="#00680a" stroke-width="1" fill="#268b1e"/>
		<g>
			<path d="M 38.0425 49.5 L 38.0425 59.5 L 28 59.5 L 28 63.25 L 38.0425 63.25 L 38.0425 74.5 L 41.8085 74.5 L 41.8085 63.25 L 53.1064 63.25 L 53.1064 59.5 L 41.8085 59.5 L 41.8085 49.5 L 38.0425 49.5 Z" fill="#ffffff"/>
			<path id="Elipse2" d="M 56.8723 52 C 56.8723 46.4771 61.3685 42 66.9149 42 C 72.4613 42 76.9575 46.4771 76.9575 52 C 76.9575 57.5229 72.4613 62 66.9149 62 C 61.3685 62 56.8723 57.5229 56.8723 52 Z" stroke="#ffffff" stroke-width="3" fill="#268c1f"/>
			<path d="M 48.0851 82 L 48.0851 75.0172 C 48.0851 75.0172 66.4615 62.6034 87 75.0172 L 87 82 L 48.0851 82 Z" stroke="#ffffff" stroke-width="3" fill="#268c1f"/>
		</g>
	</g>
</svg>