<?xml version="1.0" standalone="no"?>
<!-- Generator: Adobe Fireworks 10, Export SVG Extension by Aaron Beall (http://fireworks.abeall.com) . Version: 0.6.1  -->
<!DOCTYPE svg PUBLIC "-//W3C//DTD SVG 1.1//EN" "http://www.w3.org/Graphics/SVG/1.1/DTD/svg11.dtd">
<svg id="icono_estadisticas_equipo.fw-P%E1gina%201" viewBox="0 0 122 122" style="background-color:#ffffff00" version="1.1"
	xmlns="http://www.w3.org/2000/svg" xmlns:xlink="http://www.w3.org/1999/xlink" xml:space="preserve"
	x="0px" y="0px" width="122px" height="122px"
>
	<g id="Capa%201">
		<path id="Elipse" d="M 2 61.5 C 2 28.6387 28.6386 2 61.5 2 C 94.3614 2 121 28.6387 121 61.5 C 121 94.3614 94.3614 121 61.5 121 C 28.6386 121 2 94.3614 2 61.5 Z" stroke="#00680a" stroke-width="1" fill="#268b1e"/>
		<g>
			<path id="Elipse2" d="M 68.2791 52.3 C 68.2791 48.0474 71.715 44.6 75.9535 44.6 C 80.192 44.6 83.6279 48.0474 83.6279 52.3 C 83.6279 56.5526 80.192 60 75.9535 60 C 71.715 60 68.2791 56.5526 68.2791 52.3 Z" fill="#ffffff"/>
			<path id="Elipse3" d="M 44.5582 48.1 C 44.5582 43.0742 48.6188 39 53.6279 39 C 58.637 39 62.6977 43.0742 62.6977 48.1 C 62.6977 53.1258 58.637 57.2 53.6279 57.2 C 48.6188 57.2 44.5582 53.1258 44.5582 48.1 Z" fill="#ffffff"/>
			<path d="M 58.5117 81 L 58.5117 72.6 C 58.5117 72.6 74.3256 57.6666 92 72.6 L 92 81 L 58.5117 81 Z" fill="#ffffff"/>
			<path d="M 52.9302 81 L 52.9302 72.6 C 52.9302 72.6 56.6512 63.7333 61.3023 62.8 C 61.3023 62.8 39.4418 60.4666 32 71.2 L 32 81 L 52.9302 81 Z" stroke="#ffffff00" stroke-width="1" fill="#ffffff"/>
		</g>
	</g>
</svg>