<?xml version="1.0" standalone="no"?>
<!-- Generator: Adobe Fireworks 10, Export SVG Extension by Aaron Beall (http://fireworks.abeall.com) . Version: 0.6.1  -->
<!DOCTYPE svg PUBLIC "-//W3C//DTD SVG 1.1//EN" "http://www.w3.org/Graphics/SVG/1.1/DTD/svg11.dtd">
<svg id="icono_agregar_rival.fw-P%E1gina%201" viewBox="0 0 122 122" style="background-color:#ffffff00" version="1.1"
	xmlns="http://www.w3.org/2000/svg" xmlns:xlink="http://www.w3.org/1999/xlink" xml:space="preserve"
	x="0px" y="0px" width="122px" height="122px"
>
	<g id="Capa%201">
		<path id="Elipse" d="M 2 61.5 C 2 28.6386 28.6386 2 61.5 2 C 94.3614 2 121 28.6386 121 61.5 C 121 94.3614 94.3614 121 61.5 121 C 28.6386 121 2 94.3614 2 61.5 Z" stroke="#00680a" stroke-width="1" fill="#268b1e"/>
		<g>
			<path d="M 35 54 L 35 62 L 27 62 L 27 65 L 35 65 L 35 74 L 38 74 L 38 65 L 47 65 L 47 62 L 38 62 L 38 54 L 35 54 Z" fill="#ffffff"/>
			<g>
				<path d="M 47 49.0834 C 47 45.7878 48.8337 44 52.2137 44 L 81.7863 44 C 85.1663 44 87 45.7878 87 49.0834 L 87 77.9166 C 87 81.2122 85.1663 83 81.7863 83 L 52.2137 83 C 48.8337 83 47 81.2122 47 77.9166 L 47 49.0834 Z" fill="#ffffff"/>
			</g>
			<path id="Elipse2" d="M 60 46.5 C 60 42.9101 62.9101 40 66.5 40 C 70.0899 40 73 42.9101 73 46.5 C 73 50.0899 70.0899 53 66.5 53 C 62.9101 53 60 50.0899 60 46.5 Z" fill="#ffffff"/>
			<path id="Elipse3" d="M 64 46.5 C 64 45.1193 65.1193 44 66.5 44 C 67.8807 44 69 45.1193 69 46.5 C 69 47.8807 67.8807 49 66.5 49 C 65.1193 49 64 47.8807 64 46.5 Z" fill="#268c1f"/>
			<path id="Elipse4" d="M 60 59 C 60 55.134 63.134 52 67 52 C 70.866 52 74 55.134 74 59 C 74 62.866 70.866 66 67 66 C 63.134 66 60 62.866 60 59 Z" fill="#268c1f"/>
			<path d="M 54 79 L 54 72.8552 C 54 72.8552 66.2778 61.931 80 72.8552 L 80 79 L 54 79 Z" fill="#268c1f"/>
		</g>
	</g>
</svg>