<?xml version="1.0" standalone="no"?>
<!-- Generator: Adobe Fireworks 10, Export SVG Extension by Aaron Beall (http://fireworks.abeall.com) . Version: 0.6.1  -->
<!DOCTYPE svg PUBLIC "-//W3C//DTD SVG 1.1//EN" "http://www.w3.org/Graphics/SVG/1.1/DTD/svg11.dtd">
<svg id="icono_comenzar_juego.fw-P%E1gina%201" viewBox="0 0 122 122" style="background-color:#ffffff00" version="1.1"
	xmlns="http://www.w3.org/2000/svg" xmlns:xlink="http://www.w3.org/1999/xlink" xml:space="preserve"
	x="0px" y="0px" width="122px" height="122px"
>
	<g id="Capa%201">
		<path id="Elipse" d="M 2 61.5 C 2 28.6387 28.6386 2 61.5 2 C 94.3614 2 121 28.6387 121 61.5 C 121 94.3614 94.3614 121 61.5 121 C 28.6386 121 2 94.3614 2 61.5 Z" stroke="#00680a" stroke-width="1" fill="#ffffff"/>
		<path d="M 43.8486 63.9412 C 43.8486 54.3898 51.7041 46.6471 61.3945 46.6471 C 71.085 46.6471 78.9404 54.3898 78.9404 63.9412 C 78.9404 73.4926 71.085 81.2353 61.3945 81.2353 C 51.7041 81.2353 43.8486 73.4926 43.8486 63.9412 ZM 38 63.9412 C 38 76.6764 48.4739 87 61.3945 87 C 74.3151 87 84.789 76.6764 84.789 63.9412 C 84.789 51.206 74.3151 40.8824 61.3945 40.8824 C 48.4739 40.8824 38 51.206 38 63.9412 Z" fill="#268b1e"/>
		<path d="M 59.0551 53.5647 L 59.0551 61.6353 L 50.867 61.6353 L 50.867 66.2471 L 59.0551 66.2471 L 59.0551 74.3177 L 63.7339 74.3177 L 63.7339 66.2471 L 71.9221 66.2471 L 71.9221 61.6353 L 63.7339 61.6353 L 63.7339 53.5647 L 59.0551 53.5647 Z" fill="#268b1e"/>
		<path id="L%EDnea" d="M 77.5 37.5 L 88.5 48.5 " stroke="#268b1e" stroke-width="5" fill="none"/>
	</g>
</svg>