<?xml version="1.0" standalone="no"?>
<!-- Generator: Adobe Fireworks 10, Export SVG Extension by Aaron Beall (http://fireworks.abeall.com) . Version: 0.6.1  -->
<!DOCTYPE svg PUBLIC "-//W3C//DTD SVG 1.1//EN" "http://www.w3.org/Graphics/SVG/1.1/DTD/svg11.dtd">
<svg id="Untitled-P%E1gina%201" viewBox="0 0 122 122" style="background-color:#ffffff00" version="1.1"
	xmlns="http://www.w3.org/2000/svg" xmlns:xlink="http://www.w3.org/1999/xlink" xml:space="preserve"
	x="0px" y="0px" width="122px" height="122px"
>
	<g id="Capa%201">
		<path id="Elipse" d="M 1 60.5 C 1 27.6387 27.6386 1 60.5 1 C 93.3614 1 120 27.6387 120 60.5 C 120 93.3614 93.3614 120 60.5 120 C 27.6386 120 1 93.3614 1 60.5 Z" stroke="#00680a" stroke-width="1" fill="#268b1e"/>
		<g>
			<path d="M 33 81 L 89 81 L 89 77 C 89 77 74.6666 74 78 58 C 81.3334 42 74.6666 29.6667 61 30 C 47.3334 30.3333 41.3334 42.6667 43 51 C 44.6666 59.3333 47.3334 72 33 76 L 33 81 Z" fill="#ffffff"/>
			<path d="M 61 31 L 66 22 L 56 22 L 61 31 Z" fill="#ffffff"/>
			<path d="M 53 86 C 53 90.4183 56.5817 94 61 94 C 65.4183 94 69 90.4183 69 86 C 69 85.3094 68.9145 84.6392 68.75 84 L 53.25 84 C 53.0854 84.6392 53 85.3094 53 86 Z" fill="#ffffff"/>
		</g>
	</g>
</svg>